<?xml version="1.0" encoding="utf-8"?>
<!-- Generator: Adobe Illustrator 16.0.0, SVG Export Plug-In . SVG Version: 6.00 Build 0)  -->
<!DOCTYPE svg PUBLIC "-//W3C//DTD SVG 1.1//EN" "http://www.w3.org/Graphics/SVG/1.1/DTD/svg11.dtd">
<svg version="1.1" id="Layer_1" xmlns="http://www.w3.org/2000/svg" xmlns:xlink="http://www.w3.org/1999/xlink" x="0px" y="0px"
	 width="792px" height="612px" viewBox="0 0 792 612" enable-background="new 0 0 792 612" xml:space="preserve">
<g id="Layer_4">
	<path fill="#CDE7F8" stroke="#FFFFFF" stroke-linejoin="round" stroke-miterlimit="10" d="M198.398,268.096v26.292
		c0,0,9.689-21.498,44.207-41.503c34.214-19.831,62.845-28.103,99.112-35.606c43.05-8.906,79.128-2.12,79.128-2.12v-26.292
		c0,0-54.435-21.329-79.128-13.793c-24.694,7.536-93.594,15.879-114.587,33.912C206.137,227.017,198.398,268.096,198.398,268.096z"
		/>
	<path fill="#CDE7F8" stroke="#FFFFFF" stroke-linejoin="round" stroke-miterlimit="10" d="M130.272,238.523l68.126,29.572
		c0,0,9.689-21.498,44.207-41.504c34.214-19.831,62.845-28.104,99.112-35.605c43.05-8.906,79.128-2.12,79.128-2.12l18.906-60.674
		c0,0-78.051-21.885-111.56-13.003c-33.508,8.882-105.773,32.297-134.437,50.061C165.092,183.013,130.272,238.523,130.272,238.523z"
		/>
	<path fill="#97D0F1" stroke="#FFFFFF" stroke-linejoin="round" stroke-miterlimit="10" d="M130.272,211.929v26.595
		c0,0,30.648-47.891,92.283-75.612c61.633-27.721,103.352-33.145,138.608-35.93c35.258-2.786,78.589,1.211,78.589,1.211v-26.595
		c0,0-104.965-30.952-150.989-18.302c-46.023,12.65-108.442,35.527-128.773,56.521C139.658,160.808,130.272,211.929,130.272,211.929
		z"/>
	<path fill="#97D0F1" stroke="#FFFFFF" stroke-linejoin="round" stroke-miterlimit="10" d="M62.212,182.475l68.06,29.454
		c0,0,30.648-47.891,92.283-75.612c61.633-27.721,103.352-33.146,138.608-35.93c35.258-2.785,78.589,1.211,78.589,1.211
		l18.841-59.75c0,0-124.344-28.395-165.523-14.668c-41.179,13.726-126.639,37.176-153.751,53.913
		C112.206,97.829,62.212,182.475,62.212,182.475z"/>
	<path fill="#74BBE8" stroke="#FFFFFF" stroke-linejoin="round" stroke-miterlimit="10" d="M62.212,170.229v12.246
		c0,0,37.68-62.508,110.601-95.411C224.059,63.94,275.709,44.875,343.669,39.56c75.014-5.867,114.924,2.288,114.924,2.288V29.601
		c0,0-105.773-21.397-168.753-6.863C226.86,37.272,183,50.812,146.925,75.625C91.75,113.574,62.212,170.229,62.212,170.229z"/>
	<path fill="#74BBE8" stroke="#FFFFFF" stroke-width="2" stroke-linejoin="round" stroke-miterlimit="10" d="M32.27,164.846
		c0,0,14.87-39.917,74.687-81.096c55.163-37.975,114.66-57.769,170.771-69.49c99.853-20.858,190.554-5.652,190.554-5.652
		l-9.689,20.993c0,0-39.91-8.154-114.924-2.288c-67.959,5.315-119.61,24.381-170.855,47.504
		C99.892,107.72,62.38,170.229,62.38,170.229L32.27,164.846z"/>
	<polygon fill="#4E9CD5" stroke="#FFFFFF" stroke-width="3" stroke-linejoin="round" stroke-miterlimit="10" points="32.27,164.846 
		32.27,264.462 198.398,294.387 198.398,268.096 130.272,238.523 130.272,211.929 62.212,182.475 62.38,170.229 	"/>
	<polygon fill="#4E9CD5" stroke="#FFFFFF" stroke-width="3" stroke-linejoin="round" stroke-miterlimit="10" points="468.282,8.608 
		468.282,108.595 420.846,215.158 420.846,188.866 439.752,128.192 439.752,101.597 458.593,41.848 458.593,29.601 	"/>
</g>
<g id="Layer_5">
	
		<path fill="#4E9CD5" stroke="#FFFFFF" stroke-width="3" stroke-linecap="round" stroke-linejoin="round" stroke-miterlimit="10" d="
		M781.026,300.494v99.718c0,0,7.917-16.754,7.917-54.099c0-37.344,0-102.745,0-102.745L781.026,300.494z"/>
	<path fill="#CDE7F8" stroke="#FFFFFF" stroke-linecap="round" stroke-linejoin="round" stroke-miterlimit="10" d="M489.209,201.18
		v26.646c0,0,31.909,5.298,64.509,28.007c32.601,22.709,45.549,40.065,55.965,63.636c13.828,31.288,3.635,50.563,3.635,50.563
		l45.096-44.509c0,0-19.896-68.229-41.831-89.625C594.645,214.502,489.209,201.18,489.209,201.18z"/>
	<path fill="#CDE7F8" stroke="#FFFFFF" stroke-linecap="round" stroke-linejoin="round" stroke-miterlimit="10" d="M508.52,140.825
		l-19.311,60.355c0,0,31.909,5.299,64.509,28.007c32.601,22.709,45.549,40.065,55.965,63.636
		c13.828,31.287,3.635,50.563,3.635,50.563l67.521-4.205c0,0,66.008-78.657,7.872-146.885
		C630.574,124.07,508.52,140.825,508.52,140.825z"/>
	<path fill="#97D0F1" stroke="#FFFFFF" stroke-linecap="round" stroke-linejoin="round" stroke-miterlimit="10" d="M508.52,113.641
		v27.184c0,0,71.861,18.502,117.481,58.739c45.619,40.238,51.529,65.898,56.172,86.891c4.645,20.993-1.335,52.728-1.335,52.728
		l43.803-44.794c0,0-37.545-131.56-78.319-151.746C605.545,122.455,508.52,113.641,508.52,113.641z"/>
	<path fill="#97D0F1" stroke="#FFFFFF" stroke-linecap="round" stroke-linejoin="round" stroke-miterlimit="10" d="M527.881,53.623
		l-19.361,60.019c0,0,71.861,18.503,117.481,58.74c45.619,40.237,51.529,65.897,56.172,86.891
		c4.645,20.993-1.335,52.727-1.335,52.727l66.411-4.845c0,0,28.461-40.371,25.434-64.795
		c-3.026-24.425-51.405-105.234-80.741-133.495C662.604,80.604,527.881,53.623,527.881,53.623z"/>
	<path fill="#74BBE8" stroke="#FFFFFF" stroke-linecap="round" stroke-linejoin="round" stroke-miterlimit="10" d="M527.881,40.804
		v12.818c0,0,91.188,21.094,148.516,70.347c28.218,24.241,63.049,58.74,74.756,109.205c11.709,50.464-3.902,73.98-3.902,73.98
		l28.26-14.735c0,0-7.267-124.748-75.495-180.536C624.11,49.817,527.881,40.804,527.881,40.804z"/>
	
		<path fill="#74BBE8" stroke="#FFFFFF" stroke-width="2" stroke-linecap="round" stroke-linejoin="round" stroke-miterlimit="10" d="
		M537.015,21.527c0,0,65.839,11.843,125.053,47.504c60.475,36.42,84.209,66.732,109.809,110.617
		c32.029,54.906,9.151,120.846,9.151,120.846l-33.777-6.156c0,0,15.611-23.517,3.902-73.981
		c-11.707-50.464-46.538-84.963-74.755-109.205C619.07,61.899,527.881,40.805,527.881,40.805L537.015,21.527z"/>
	
		<polygon fill="#4E9CD5" stroke="#FFFFFF" stroke-width="3" stroke-linecap="round" stroke-linejoin="round" stroke-miterlimit="10" points="
		747.249,294.067 747.249,306.886 680.838,311.73 680.838,338.912 613.316,343.119 613.316,369.764 781.026,400.212 
		781.026,300.224 	"/>
</g>
<g id="Layer_8">
	<ellipse fill="#4E9CD5" stroke="#FFFFFF" stroke-miterlimit="10" cx="395.882" cy="353.673" rx="88.279" ry="57.17"/>
	
		<ellipse fill="#74BBE8" stroke="#FFFFFF" stroke-linecap="round" stroke-linejoin="round" stroke-miterlimit="10" cx="395.882" cy="352.056" rx="79.135" ry="51.25"/>
	<path fill="#97D0F1" stroke="#FFFFFF" stroke-linecap="round" stroke-linejoin="round" stroke-miterlimit="10" d="M452.578,350.439
		c0,20.277-25.385,36.718-56.699,36.718c-31.311,0-56.692-16.439-56.692-36.718c0-20.274,25.382-36.715,56.692-36.715
		C427.193,313.726,452.578,330.165,452.578,350.439z"/>
	
		<ellipse fill="#CDE7F8" stroke="#FFFFFF" stroke-linecap="round" stroke-linejoin="round" stroke-miterlimit="10" cx="395.882" cy="347.21" rx="18.46" ry="11.955"/>
</g>
<g id="Layer_6">
</g>
<g id="_x39_">
	<path fill="#CDE7F8" stroke="#FFFFFF" stroke-linejoin="round" stroke-miterlimit="10" d="M111.398,282.744l67.42,28.65
		c0,0-5.481,49.11,25.03,84.377c15.542,17.964,53.62,40.025,64.421,45.448c16.422,8.246,34.892,12.954,34.892,12.954l-19.378,25.568
		c0,0-154.375-83.968-171.602-114.928C94.957,333.856,111.398,282.744,111.398,282.744z"/>
	<path fill="#97D0F1" stroke="#FFFFFF" stroke-width="2" stroke-linejoin="round" stroke-miterlimit="10" d="M111.398,256.085
		v26.659c0,0-3.769,35.784,1.883,50.317c5.652,14.534-21.531-5.924-21.531-5.924L111.398,256.085z"/>
	<path fill="#97D0F1" stroke="#FFFFFF" stroke-width="2" stroke-linejoin="round" stroke-miterlimit="10" d="M44.342,226.592
		l67.057,29.493c0,0-11.103,51.271,17.662,98.102c15.752,25.647,45.317,49.658,68.329,61.366
		c23.012,11.707,86.395,37.949,86.395,37.949l-19.782,27.25c0,0-179.344-63.814-198.224-103.552
		C15.717,271.83,44.342,226.592,44.342,226.592z"/>
	<path fill="#74BBE8" stroke="#FFFFFF" stroke-width="2" stroke-linejoin="round" stroke-miterlimit="10" d="M44.919,214.637
		l-19.917,36.906c0,0,9.488,19.479,9.588,9.387c0.101-10.093,10.396-34.103,10.396-34.103L44.919,214.637"/>
	<path fill="#74BBE8" stroke="#FFFFFF" stroke-width="2" stroke-linejoin="round" stroke-miterlimit="10" d="M11.276,207.639
		c0,0-8.276,37.949-8.276,57.731c0,19.782,14.736,136.052,66.007,165.927c51.271,29.876,186.113,56.521,186.113,56.521l8.881-19.782
		c0,0-41.678-12.171-82.963-30.278c-39.213-17.2-93.057-61.77-112.838-93.663c-46.298-74.642-23.281-129.457-23.281-129.457
		L11.276,207.639z"/>
	<path fill="#4E9CD5" stroke="#FFFFFF" stroke-width="3" stroke-linejoin="round" stroke-miterlimit="10" d="M3,258.305v106.58
		c0,0,6.459,33.104,19.177,64.798c11.271,28.091,46.51,73.188,107.589,109.204c73.14,43.131,125.354,48.243,125.354,48.243v-99.313
		c0,0-63.787-10.094-125.152-48.041c-16.412-10.152-75.305-50.938-107.388-112.64C6.836,296.86,3,258.305,3,258.305z"/>
	<polygon fill="#4E9CD5" stroke="#FFFFFF" stroke-width="2" stroke-linejoin="round" stroke-miterlimit="10" points="
		303.162,454.174 303.162,480.82 255.121,587.13 255.121,487.817 264.002,468.035 264.002,480.752 283.784,453.502 283.784,479.742 
			"/>
</g>
<g id="Layer_3">
	<path fill="#CDE7F8" stroke="#FFFFFF" stroke-linejoin="round" stroke-miterlimit="10" d="M422.26,466.712
		c0,0,70.246-3.521,128.38-38.778c38.217-23.176,42.794-41.044,42.794-41.044l44.631-3.202c0,0-52.302,59.723-93.479,69.814
		C503.404,463.594,422.26,466.712,422.26,466.712z"/>
	<path fill="#97D0F1" stroke="#FFFFFF" stroke-linejoin="round" stroke-miterlimit="10" d="M341.717,479.742l9.891-13.928
		c0,0,86.261,8.275,153.008-12.313c66.747-20.591,96.353-36.737,119.229-56.385c22.877-19.648,37.949-41.987,37.949-41.987
		l59.508-4.152c0,0-51.063,90.05-109.3,104.14C423.469,500.735,341.717,479.742,341.717,479.742z"/>
	<path fill="#74BBE8" stroke="#FFFFFF" stroke-linejoin="round" stroke-miterlimit="10" d="M323.482,499.93l10.363-21.396
		c0,0,54.299,7.468,116.668,2.22c64.768-5.45,129.408-26.952,168.018-46.494c81.753-41.381,111.357-96.218,111.357-96.218
		l30.076,5.921c0,0-81.752,156.372-146.347,176.355C549.025,540.3,323.482,499.93,323.482,499.93z"/>
	<path fill="#4E9CD5" stroke="#FFFFFF" stroke-width="3" stroke-linejoin="round" stroke-miterlimit="10" d="M323.482,499.93
		v100.657c0,0,99.585,13.459,185.711-5.382c86.124-18.842,137.278-41.396,176.791-71.256c72.03-54.433,73.98-79.867,73.98-79.867
		V343.961c0,0-15.522,39.619-74.721,80.71c-44.443,30.848-72.703,47.806-171.813,69.62
		C404.199,518.334,323.482,499.93,323.482,499.93z"/>
</g>
<g id="Layer_2">
	
		<image display="none" overflow="visible" opacity="0.3" enable-background="new    " width="1920" height="1079" xlink:href="9901D522.jpeg"  transform="matrix(0.4637 0 0 0.4641 -16.1523 48.1035)">
	</image>
</g>
</svg>
