<?xml version="1.0" encoding="utf-8"?>
<!-- Generator: Adobe Illustrator 16.0.0, SVG Export Plug-In . SVG Version: 6.00 Build 0)  -->
<!DOCTYPE svg PUBLIC "-//W3C//DTD SVG 1.1//EN" "http://www.w3.org/Graphics/SVG/1.1/DTD/svg11.dtd">
<svg version="1.1"
	 id="svg22048" xmlns:inkscape="http://www.inkscape.org/namespaces/inkscape" xmlns:sodipodi="http://sodipodi.sourceforge.net/DTD/sodipodi-0.dtd" xmlns:svg="http://www.w3.org/2000/svg" xmlns:rdf="http://www.w3.org/1999/02/22-rdf-syntax-ns#" xmlns:cc="http://creativecommons.org/ns#" xmlns:dc="http://purl.org/dc/elements/1.1/" sodipodi:docname="reddit-logo.svg" inkscape:version="0.48.3.1 r9886"
	 xmlns="http://www.w3.org/2000/svg" xmlns:xlink="http://www.w3.org/1999/xlink" x="0px" y="0px" width="32.75px"
	 height="25.125px" viewBox="0 0 32.75 25.125" enable-background="new 0 0 32.75 25.125" xml:space="preserve">
<sodipodi:namedview  inkscape:cy="21.541432" inkscape:cx="24.896869" inkscape:zoom="10.8" showgrid="false" guidetolerance="10" gridtolerance="10" objecttolerance="10" bordercolor="#666666" pagecolor="#ffffff" borderopacity="1" id="namedview22126" inkscape:pageshadow="2" inkscape:pageopacity="0" inkscape:window-y="248" inkscape:window-width="1109" inkscape:window-maximized="0" inkscape:window-height="857" inkscape:window-x="2377" inkscape:current-layer="svg22048">
	</sodipodi:namedview>
<g id="Layer_3">
</g>
<g id="g22188">
	
		<path id="path22080" inkscape:connector-curvature="0" fill="none" stroke="#000000" stroke-width="1.1" stroke-linecap="round" stroke-linejoin="round" d="
		M23.866,2.816c0,0,0,0-5.404-1.272l-1.986,6.278"/>
	
		<circle id="circle22084" sodipodi:ry="2.1300001" sodipodi:rx="2.1300001" sodipodi:cy="2.967" sodipodi:cx="26.534" fill="none" stroke="#000000" stroke-width="1.1" cx="26.07" cy="3.253" r="2.13">
	</circle>
	
		<ellipse id="ellipse22096_2_" sodipodi:ry="7.9860001" sodipodi:rx="12.239" sodipodi:cy="15.73" sodipodi:cx="16.778999" fill="none" stroke="#000000" stroke-width="1.1" cx="16.375" cy="16.016" rx="12.238" ry="7.986">
	</ellipse>
	<g id="g22116">
		<path id="circle22118" d="M12.068,12.474c-1.087,0-1.969,0.881-1.969,1.969c0,1.087,0.882,2,1.969,2s1.969-0.913,1.969-2
			C14.037,13.355,13.155,12.474,12.068,12.474z"/>
		<path id="circle22120" d="M20.693,12.474c-1.088,0-1.969,0.881-1.969,1.969c0,1.087,0.881,2,1.969,2c1.086,0,1.969-0.913,1.969-2
			C22.662,13.355,21.779,12.474,20.693,12.474z"/>
		
			<path id="path22122" inkscape:connector-curvature="0" fill="none" stroke="#000000" stroke-width="1.1" stroke-linecap="round" d="
			M12.147,19.693c1.066,1.064,2.786,1.271,4.212,1.271"/>
		
			<path id="path22124" inkscape:connector-curvature="0" fill="none" stroke="#000000" stroke-width="1.1" stroke-linecap="round" d="
			M20.602,19.693c-1.065,1.064-2.785,1.271-4.21,1.271"/>
	</g>
	<path fill="none" stroke="#000000" stroke-width="1.1" d="M7.411,10.603C6.915,9.995,6.17,9.598,5.324,9.598
		c-1.493,0-2.702,1.209-2.702,2.702c0,1.134,0.698,2.099,1.686,2.501"/>
	<path fill="none" stroke="#000000" stroke-width="1.1" d="M28.547,14.752c0.932-0.427,1.581-1.359,1.581-2.452
		c0-1.492-1.21-2.702-2.702-2.702c-0.82,0-1.548,0.374-2.043,0.952"/>
</g>
</svg>
